<?xml version="1.0" ?><svg id="Icons" height="28" width="28" style="enable-background:new 0 0 28 28;" version="1.1" viewBox="0 0 32 32" xml:space="preserve" xmlns="http://www.w3.org/2000/svg" xmlns:xlink="http://www.w3.org/1999/xlink"><g><path d="M28.7,8.9l-5.7-5.7c-1.1-1.1-3.1-1.1-4.2,0l-7.1,7.1c0,0,0,0,0,0s0,0,0,0l-7.5,7.5c-1.2,1.2-1.2,3.1,0,4.2l3.8,3.8   c0.2,0.2,0.4,0.3,0.7,0.3h6.6c0.3,0,0.5-0.1,0.7-0.3l12.7-12.7c0,0,0,0,0,0C29.9,12,29.9,10.1,28.7,8.9z M14.9,24.1H9.2l-3.5-3.5   c-0.4-0.4-0.4-1,0-1.4l6.8-6.8l7.1,7.1L14.9,24.1z"/><path d="M27,28H5c-0.6,0-1,0.4-1,1s0.4,1,1,1h22c0.6,0,1-0.4,1-1S27.6,28,27,28z"/></g></svg>